<?xml version="1.0" encoding="utf-8"?>
<!-- Generator: Adobe Illustrator 21.1.0, SVG Export Plug-In . SVG Version: 6.00 Build 0)  -->
<svg version="1.1" id="Layer_1" xmlns="http://www.w3.org/2000/svg" xmlns:xlink="http://www.w3.org/1999/xlink" x="0px" y="0px"
	 viewBox="0 0 350 345" style="enable-background:new 0 0 350 345;" xml:space="preserve">
<style type="text/css">
	.st0{fill:none;stroke:#000000;stroke-miterlimit:10;}
</style>
<line class="st0" x1="17.5" y1="330.5" x2="16.5" y2="330.5"/>
<line class="st0" x1="23.5" y1="321" x2="23.5" y2="21"/>
<line class="st0" x1="24" y1="21.5" x2="324" y2="21.5"/>
<line class="st0" x1="324.5" y1="321" x2="324.5" y2="21"/>
<line class="st0" x1="44.5" y1="321.5" x2="324" y2="321.5"/>
<line class="st0" x1="44.2" y1="41.8" x2="44.2" y2="321.2"/>
<line class="st0" x1="44.5" y1="41.5" x2="305.5" y2="41.5"/>
<line class="st0" x1="305.3" y1="41.8" x2="305.5" y2="302.5"/>
<line class="st0" x1="305.8" y1="302.1" x2="65.5" y2="302.5"/>
<line class="st0" x1="64.6" y1="302.4" x2="64.5" y2="62.5"/>
<line class="st0" x1="64.6" y1="62.5" x2="285.5" y2="62.5"/>
<line class="st0" x1="286" y1="62" x2="286" y2="282.9"/>
<line class="st0" x1="285.5" y1="283.5" x2="85.5" y2="283.5"/>
<line class="st0" x1="85.5" y1="283" x2="85.5" y2="83"/>
<line class="st0" x1="265.5" y1="82.5" x2="85" y2="82.5"/>
<line class="st0" x1="266.5" y1="227.5" x2="266.3" y2="82.3"/>
<circle class="st0" cx="266.5" cy="237.5" r="10"/>
</svg>
